# xmcd CD database file
#
# Track frame offsets:
#	150
#	26321
#	53344
#	75874
#	104734
#	140258
#	188970
#	211900
#	239068
#	266193
#	293742
#
# Disc length: 4201 seconds
#
# Revision: 0
# Processed by: cddbd v1.5.2PL0 Copyright (c) Steve Scherf et al.
# Submitted via: CDex 1.70beta2
#
DISCID=9610670b
DTITLE=Various Artist - The Best of Polish Smooth Jazz Vol.3 - CD 4
DYEAR=2006
DGENRE=Jazz
TTITLE0=Adam Wendt and Z. Kalinowski - Kattorna
TTITLE1=Ecstasy Project Trio - Realium
TTITLE2=M. Grott - Grooven
TTITLE3=Szy Szy Kaan Jazz Group - Wschodni taniec
TTITLE4=Sing Sing Penelope - La couchette
TTITLE5=Outlook - Jungle
TTITLE6=Jaskinia - Dub
TTITLE7=Free Bop and A. Przybielski - O czasie
TTITLE8=Kattorna - Zmierzch
TTITLE9=Trio M. Małeckiego - Kasjopeja
TTITLE10=Byrklymyny - Odsłona
EXTD=YEAR: 2006
EXTT0=
EXTT1=
EXTT2=
EXTT3=
EXTT4=
EXTT5=
EXTT6=
EXTT7=
EXTT8=
EXTT9=
EXTT10=
PLAYORDER=
